<svg width="32" height="32" viewBox="0 0 32 32" fill="none" xmlns="http://www.w3.org/2000/svg">
<path d="M1.59969 17.6001H3.19973V28.8C3.19973 30.5648 4.63496 32 6.3998 32H25.6002C27.365 32 28.8003 30.5648 28.8003 28.8V17.6001H30.4003C30.7167 17.6001 31.026 17.5062 31.2891 17.3304C31.5521 17.1546 31.7571 16.9047 31.8782 16.6124C31.9993 16.3201 32.031 15.9984 31.9693 15.6881C31.9076 15.3778 31.7552 15.0927 31.5315 14.869L17.1312 0.469117C16.9828 0.320405 16.8064 0.202426 16.6123 0.12193C16.4182 0.0414333 16.2101 0 16 0C15.7899 0 15.5818 0.0414333 15.3877 0.12193C15.1936 0.202426 15.0172 0.320405 14.8688 0.469117L0.468469 14.869C0.244769 15.0927 0.0924356 15.3778 0.0307262 15.6881C-0.0309832 15.9984 0.000702337 16.3201 0.121777 16.6124C0.242852 16.9047 0.447879 17.1546 0.710941 17.3304C0.974002 17.5062 1.28329 17.6001 1.59969 17.6001ZM12.7999 28.8V20.8001H19.2001V28.8H12.7999ZM16 3.86268L25.6002 13.4626V20.8001L25.6018 28.8H22.4001V20.8001C22.4001 19.0353 20.9649 17.6001 19.2001 17.6001H12.7999C11.0351 17.6001 9.59986 19.0353 9.59986 20.8001V28.8H6.3998V13.4626L16 3.86268Z" fill="#DADADA"/>
</svg>
