<svg width="32" height="32" viewBox="0 0 32 32" fill="none" xmlns="http://www.w3.org/2000/svg">
<path d="M16.4884 10.0822C12.9416 10.0822 10.0791 12.9447 10.0791 16.4916C10.0791 20.0384 12.9416 22.9009 16.4884 22.9009C20.0353 22.9009 22.8978 20.0384 22.8978 16.4916C22.8978 12.9447 20.0353 10.0822 16.4884 10.0822ZM16.4884 20.6572C14.1947 20.6572 12.3228 18.7853 12.3228 16.4916C12.3228 14.1978 14.1947 12.3259 16.4884 12.3259C18.7822 12.3259 20.6541 14.1978 20.6541 16.4916C20.6541 18.7853 18.7822 20.6572 16.4884 20.6572ZM23.1603 8.32593C22.3322 8.32593 21.6634 8.99468 21.6634 9.8228C21.6634 10.6509 22.3322 11.3197 23.1603 11.3197C23.9884 11.3197 24.6572 10.6541 24.6572 9.8228C24.6574 9.62616 24.6189 9.4314 24.5437 9.24968C24.4686 9.06796 24.3584 8.90285 24.2193 8.7638C24.0803 8.62476 23.9151 8.51451 23.7334 8.43937C23.5517 8.36423 23.3569 8.32568 23.1603 8.32593ZM28.9822 16.4916C28.9822 14.7666 28.9978 13.0572 28.9009 11.3353C28.8041 9.3353 28.3478 7.5603 26.8853 6.0978C25.4197 4.63218 23.6478 4.17905 21.6478 4.08218C19.9228 3.9853 18.2134 4.00093 16.4916 4.00093C14.7666 4.00093 13.0572 3.9853 11.3353 4.08218C9.3353 4.17905 7.5603 4.6353 6.0978 6.0978C4.63218 7.56343 4.17905 9.3353 4.08218 11.3353C3.9853 13.0603 4.00093 14.7697 4.00093 16.4916C4.00093 18.2134 3.9853 19.9259 4.08218 21.6478C4.17905 23.6478 4.6353 25.4228 6.0978 26.8853C7.56343 28.3509 9.3353 28.8041 11.3353 28.9009C13.0603 28.9978 14.7697 28.9822 16.4916 28.9822C18.2166 28.9822 19.9259 28.9978 21.6478 28.9009C23.6478 28.8041 25.4228 28.3478 26.8853 26.8853C28.3509 25.4197 28.8041 23.6478 28.9009 21.6478C29.0009 19.9259 28.9822 18.2166 28.9822 16.4916ZM26.2322 23.8603C26.0041 24.4291 25.7291 24.8541 25.2884 25.2916C24.8478 25.7322 24.4259 26.0072 23.8572 26.2353C22.2134 26.8884 18.3103 26.7416 16.4884 26.7416C14.6666 26.7416 10.7603 26.8884 9.11655 26.2384C8.5478 26.0103 8.1228 25.7353 7.6853 25.2947C7.24468 24.8541 6.96968 24.4322 6.74155 23.8634C6.09155 22.2166 6.23843 18.3134 6.23843 16.4916C6.23843 14.6697 6.09155 10.7634 6.74155 9.11968C6.96968 8.55093 7.24468 8.12593 7.6853 7.68843C8.12593 7.25093 8.5478 6.9728 9.11655 6.74468C10.7603 6.09468 14.6666 6.24155 16.4884 6.24155C18.3103 6.24155 22.2166 6.09468 23.8603 6.74468C24.4291 6.9728 24.8541 7.2478 25.2916 7.68843C25.7322 8.12905 26.0072 8.55093 26.2353 9.11968C26.8853 10.7634 26.7384 14.6697 26.7384 16.4916C26.7384 18.3134 26.8853 22.2166 26.2322 23.8603Z" fill="url(#paint0_linear)"/>
<defs>
<linearGradient id="paint0_linear" x1="16.4918" y1="4" x2="16.4918" y2="28.9831" gradientUnits="userSpaceOnUse">
<stop stop-color="#FF9EDA"/>
<stop offset="1" stop-color="#ACDAFF"/>
</linearGradient>
</defs>
</svg>
