<svg width="129" height="18" viewBox="0 0 129 18" fill="none" xmlns="http://www.w3.org/2000/svg">
<path d="M11.752 17L8.128 11.84C7.68 11.872 7.328 11.888 7.072 11.888H2.92V17H0.52V0.199999H7.072C9.248 0.199999 10.96 0.719999 12.208 1.76C13.456 2.8 14.08 4.232 14.08 6.056C14.08 7.352 13.76 8.456 13.12 9.368C12.48 10.28 11.568 10.944 10.384 11.36L14.368 17H11.752ZM7 9.848C8.52 9.848 9.68 9.52 10.48 8.864C11.28 8.208 11.68 7.272 11.68 6.056C11.68 4.84 11.28 3.912 10.48 3.272C9.68 2.616 8.52 2.288 7 2.288H2.92V9.848H7ZM24.9175 17.192C22.6775 17.192 20.9335 16.552 19.6855 15.272C18.4375 13.992 17.8135 12.152 17.8135 9.752V0.199999H20.2135V9.656C20.2135 13.256 21.7895 15.056 24.9415 15.056C26.4775 15.056 27.6535 14.616 28.4695 13.736C29.2855 12.84 29.6935 11.48 29.6935 9.656V0.199999H32.0215V9.752C32.0215 12.168 31.3975 14.016 30.1495 15.296C28.9015 16.56 27.1575 17.192 24.9175 17.192ZM51.3899 0.199999V17H49.4219L39.3419 4.472V17H36.9419V0.199999H38.9099L48.9899 12.728V0.199999H51.3899ZM67.1224 12.8H58.1944L56.3464 17H53.8744L61.4824 0.199999H63.8584L71.4904 17H68.9704L67.1224 12.8ZM66.2824 10.88L62.6584 2.648L59.0344 10.88H66.2824ZM96.8419 0.199999L91.2259 17H88.7059L84.1219 3.584L79.5379 17H76.9699L71.3539 0.199999H73.8259L78.3619 13.856L83.0899 0.199999H85.2979L89.9299 13.928L94.5619 0.199999H96.8419ZM109.943 12.8H101.015L99.1668 17H96.6947L104.303 0.199999H106.679L114.311 17H111.791L109.943 12.8ZM109.103 10.88L105.479 2.648L101.855 10.88H109.103ZM122.241 11.192V17H119.865V11.144L113.193 0.199999H115.761L121.137 9.056L126.537 0.199999H128.913L122.241 11.192Z" fill="url(#paint0_linear)"/>
<defs>
<linearGradient id="paint0_linear" x1="-12.2522" y1="0.134621" x2="91.7643" y2="23.935" gradientUnits="userSpaceOnUse">
<stop stop-color="#FF9EDA"/>
<stop offset="1" stop-color="#ACDAFF"/>
</linearGradient>
</defs>
</svg>
