<svg width="32" height="32" viewBox="0 0 32 32" fill="none" xmlns="http://www.w3.org/2000/svg">
<path d="M10.7685 26.3292C12.7401 26.3951 14.7049 26.0652 16.5468 25.3589C18.3887 24.6526 20.0704 23.5842 21.4924 22.2169C22.9144 20.8496 24.0478 19.2112 24.8258 17.3983C25.6038 15.5855 26.0105 13.6352 26.0218 11.6625C26.9254 10.5444 27.5963 9.25693 27.9952 7.87583C28.0249 7.76671 28.0225 7.65131 27.9883 7.54353C27.954 7.43574 27.8892 7.34017 27.8019 7.26831C27.7145 7.19646 27.6083 7.15139 27.4959 7.13853C27.3835 7.12567 27.2698 7.14557 27.1685 7.19583C26.6958 7.42337 26.1636 7.49686 25.647 7.40597C25.1303 7.31507 24.6552 7.06436 24.2885 6.68916C23.8204 6.1766 23.2543 5.7632 22.6235 5.47346C21.9927 5.18373 21.3102 5.02354 20.6164 5.00241C19.9226 4.98127 19.2317 5.09961 18.5844 5.35041C17.9372 5.60121 17.3469 5.97938 16.8485 6.46249C16.1661 7.12337 15.6663 7.94955 15.3976 8.86073C15.1289 9.77191 15.1005 10.7371 15.3152 11.6625C10.8485 11.9292 7.78184 9.80916 5.32851 6.90249C5.2548 6.81903 5.15839 6.75883 5.05104 6.72925C4.94369 6.69967 4.83006 6.702 4.72401 6.73593C4.61795 6.76987 4.52408 6.83395 4.45385 6.92036C4.38361 7.00676 4.34006 7.11175 4.32851 7.22249C3.86113 9.81506 4.19828 12.4886 5.29466 14.8839C6.39105 17.2793 8.19416 19.2818 10.4618 20.6225C8.94135 22.3663 6.80612 23.4554 4.50184 23.6625C4.37839 23.683 4.26443 23.7415 4.17591 23.83C4.08739 23.9184 4.02874 24.0323 4.00816 24.1558C3.98759 24.2792 4.00613 24.406 4.06118 24.5184C4.11623 24.6307 4.20503 24.7231 4.31517 24.7825C6.31987 25.7843 8.52748 26.3134 10.7685 26.3292" stroke="url(#paint0_linear)" stroke-width="2"/>
<defs>
<linearGradient id="paint0_linear" x1="16.0079" y1="5" x2="16.0079" y2="26.3374" gradientUnits="userSpaceOnUse">
<stop stop-color="#FF9EDA"/>
<stop offset="1" stop-color="#ACDAFF"/>
</linearGradient>
</defs>
</svg>
