<svg width="32" height="32" viewBox="0 0 32 32" fill="none" xmlns="http://www.w3.org/2000/svg">
<path fill-rule="evenodd" clip-rule="evenodd" d="M16 3C19.4478 3 22.7544 4.36964 25.1924 6.80761C27.6304 9.24558 29 12.5522 29 16C29 19.4478 27.6304 22.7544 25.1924 25.1924C22.7544 27.6304 19.4478 29 16 29C12.5522 29 9.24558 27.6304 6.80761 25.1924C4.36964 22.7544 3 19.4478 3 16C3 12.5522 4.36964 9.24558 6.80761 6.80761C9.24558 4.36964 12.5522 3 16 3ZM25.788 11C24.5053 8.50602 22.3226 6.59283 19.682 5.648C20.57 7.328 21.212 9.128 21.588 11H25.788ZM26.952 16.99C26.984 16.661 27 16.3306 27 16C26.998 14.9851 26.8546 13.9754 26.574 13H21.89C21.954 13.662 22 14.328 22 15C21.9959 16.3437 21.8578 17.6837 21.588 19H26.574C26.764 18.342 26.89 17.67 26.954 16.99H26.952ZM19.882 16.99L19.894 16.888C19.9622 16.2609 19.9976 15.6308 20 15C19.9866 14.331 19.9358 13.6633 19.848 13H12.152C12.0634 13.6632 12.0127 14.331 12 15C12.0049 16.3466 12.1612 17.6884 12.466 19H19.534C19.688 18.336 19.804 17.666 19.882 16.99ZM19.498 11C19.0268 8.8847 18.1764 6.87223 16.988 5.06C16.66 5.032 16.332 5 16 5C15.7917 5.00102 15.5835 5.01103 15.376 5.03L15.012 5.06L15 5.08C13.8179 6.88692 12.9716 8.89242 12.502 11H19.498ZM10.412 11C10.7956 9.12929 11.4463 7.32348 12.344 5.638C9.69197 6.5796 7.49892 8.49726 6.212 11H10.412ZM5.426 13C5.14578 13.9755 5.00241 14.9851 5 16C5.00241 17.0149 5.14578 18.0245 5.426 19H10.412C10.1409 17.6839 10.0028 16.3438 10 15C10 14.328 10.046 13.662 10.11 13H5.426ZM10.934 21H6.214C6.97003 22.4768 8.04944 23.764 9.37188 24.7657C10.6943 25.7675 12.2257 26.4581 13.852 26.786C12.572 25.0284 11.5864 23.0742 10.934 21ZM16 26.288C17.2789 24.7063 18.2786 22.9179 18.956 21H13.044C13.7215 22.9179 14.7211 24.7062 16 26.288ZM21.066 21C20.4135 23.0741 19.428 25.0283 18.148 26.786C19.7742 26.4578 21.3055 25.7671 22.6279 24.7654C23.9503 23.7636 25.0297 22.4766 25.786 21H21.066Z" fill="url(#paint0_linear)"/>
<defs>
<linearGradient id="paint0_linear" x1="16" y1="3" x2="16" y2="29" gradientUnits="userSpaceOnUse">
<stop stop-color="#FF9EDA"/>
<stop offset="1" stop-color="#ACDAFF"/>
</linearGradient>
</defs>
</svg>
