<svg width="48" height="48" viewBox="0 0 48 48" fill="none" xmlns="http://www.w3.org/2000/svg">
<path d="M24 48C37.2548 48 48 37.2548 48 24C48 10.7452 37.2548 0 24 0C10.7452 0 0 10.7452 0 24C0 37.2548 10.7452 48 24 48Z" fill="#FFCC4D"/>
<path d="M23.9999 28C19.1693 28 15.9639 27.4374 11.9999 26.6667C11.0946 26.492 9.33325 26.6667 9.33325 29.3334C9.33325 34.6667 15.4599 41.3334 23.9999 41.3334C32.5386 41.3334 38.6666 34.6667 38.6666 29.3334C38.6666 26.6667 36.9053 26.4907 35.9999 26.6667C32.0359 27.4374 28.8306 28 23.9999 28Z" fill="#664500"/>
<path d="M12 29.3333C12 29.3333 16 30.6666 24 30.6666C32 30.6666 36 29.3333 36 29.3333C36 29.3333 33.3333 34.6666 24 34.6666C14.6667 34.6666 12 29.3333 12 29.3333Z" fill="white"/>
<path d="M16.0001 22.6667C17.841 22.6667 19.3334 20.5773 19.3334 18C19.3334 15.4227 17.841 13.3333 16.0001 13.3333C14.1591 13.3333 12.6667 15.4227 12.6667 18C12.6667 20.5773 14.1591 22.6667 16.0001 22.6667Z" fill="#664500"/>
<path d="M31.9998 22.6667C33.8408 22.6667 35.3332 20.5773 35.3332 18C35.3332 15.4227 33.8408 13.3333 31.9998 13.3333C30.1589 13.3333 28.6665 15.4227 28.6665 18C28.6665 20.5773 30.1589 22.6667 31.9998 22.6667Z" fill="#664500"/>
</svg>
