<svg width="28" height="32" viewBox="0 0 28 32" fill="none" xmlns="http://www.w3.org/2000/svg">
<path fill-rule="evenodd" clip-rule="evenodd" d="M19.3084 3.95151C19.7472 3.43639 20.0443 2.8051 19.9946 2.09773C19.8516 0.0595879 17.0145 0.507953 16.4626 1.53663C15.9107 2.56531 15.9763 5.17464 16.6895 5.35849C16.974 5.43181 17.5799 5.25221 18.1967 4.88048L17.8096 7.61911H20.0953L19.3084 3.95151Z" fill="#915B3C"/>
<path fill-rule="evenodd" clip-rule="evenodd" d="M19.484 4.41024C19.7709 3.13395 20.5881 2.26394 20.4633 1.6935C20.3801 1.3132 20.1583 1.0767 19.798 0.984013C19.6116 0.230048 19.0105 -0.090643 17.9947 0.0219406C16.471 0.190816 15.541 0.823596 15.9426 2.21599C16.3118 2.21599 16.7575 2.08248 17.3738 2.31123C17.5693 2.38381 17.7092 2.60889 17.7933 2.98648H18.0718C18.3421 2.53839 18.6086 2.37373 18.8714 2.49249C19.1341 2.61126 19.1938 2.89975 19.0505 3.35796L19.1877 4.41024H19.484Z" fill="#191847"/>
<path fill-rule="evenodd" clip-rule="evenodd" d="M26.4762 19.5238H15.5238C14.6822 19.5238 14 20.2061 14 21.0476V29.8095C14 30.6511 14.6822 31.3334 15.5238 31.3334H26.4762C27.3178 31.3334 28 30.6511 28 29.8095V21.0476C28 20.2061 27.3178 19.5238 26.4762 19.5238ZM24.9524 22.1905C25.1628 22.1905 25.3333 22.3611 25.3333 22.5715V28.2857C25.3333 28.4961 25.1628 28.6667 24.9524 28.6667H17.0476C16.8372 28.6667 16.6667 28.4961 16.6667 28.2857V22.5715C16.6667 22.3611 16.8372 22.1905 17.0476 22.1905H24.9524Z" fill="#C5CFD6"/>
<path fill-rule="evenodd" clip-rule="evenodd" d="M4.55626 30.857C6.43396 28.564 7.70446 26.8641 8.36776 25.7573C9.50348 23.8622 10.433 22.1758 10.7263 21.5317C11.4258 19.9955 9.11598 19.2763 8.59321 19.9927C7.80197 21.0772 6.11216 24.4896 3.52378 30.23L4.55626 30.857Z" fill="#B28B67"/>
<path fill-rule="evenodd" clip-rule="evenodd" d="M8.40407 30.1905L11.8986 21.394C12.646 19.7904 9.03663 18.7364 8.48734 19.4826C7.24029 21.1769 4.27633 27.8604 3.90479 28.3652L8.40407 30.1905Z" fill="#2F3676"/>
<path fill-rule="evenodd" clip-rule="evenodd" d="M17.7111 28.4263C17.0304 27.4333 14.5544 24.0927 13.2058 22.7105C12.8182 22.3133 12.4401 21.932 12.0825 21.5768C11.0194 20.5208 8.90247 22.2957 9.96357 23.2575C12.6061 25.6527 16.4618 28.8863 16.7839 29.1746C17.2354 29.5787 18.1389 29.0503 17.7111 28.4263Z" fill="#915B3C"/>
<path fill-rule="evenodd" clip-rule="evenodd" d="M17.552 27.9778C17.7865 28.1708 17.939 28.3285 18.0096 28.4508C18.0955 28.5995 18.196 28.8309 18.3112 29.1448C18.1387 29.2444 16.588 30.1397 13.6593 31.8306C13.3076 31.5008 13.2528 31.2447 13.4949 31.0625C13.737 30.8802 13.9367 30.7265 14.0942 30.6014L15.6998 28.3892C15.7307 28.3466 15.7903 28.3371 15.8328 28.368C15.8336 28.3686 15.8343 28.3691 15.835 28.3696L16.1686 28.6265C16.4747 28.5998 16.7031 28.543 16.8538 28.4559C16.9763 28.3852 17.1169 28.2381 17.2756 28.0146L17.2756 28.0146C17.3365 27.9288 17.4554 27.9086 17.5412 27.9695C17.5449 27.9721 17.5485 27.9749 17.552 27.9778Z" fill="#E4E4E4"/>
<path fill-rule="evenodd" clip-rule="evenodd" d="M5.36401 30.5144C5.47056 30.7989 5.52383 31.0117 5.52383 31.1529C5.52383 31.3246 5.49522 31.5752 5.438 31.9047C5.23877 31.9047 3.44824 31.9047 0.0664001 31.9047C-0.0731888 31.4432 0.00738955 31.1941 0.308136 31.1573C0.608883 31.1205 0.858718 31.0873 1.05764 31.0576L3.55431 29.9446C3.60235 29.9232 3.65866 29.9448 3.68008 29.9928C3.68044 29.9936 3.6808 29.9945 3.68114 29.9953L3.84162 30.3846C4.12004 30.5145 4.34627 30.5794 4.52034 30.5794C4.66176 30.5794 4.85707 30.5223 5.10626 30.4081L5.10626 30.4081C5.20189 30.3643 5.31495 30.4062 5.35879 30.5019C5.36068 30.506 5.36242 30.5102 5.36401 30.5144Z" fill="#E4E4E4"/>
<path fill-rule="evenodd" clip-rule="evenodd" d="M13.156 21.8334C16.0605 21.3602 18.006 21.0366 18.9924 20.8627C21.8041 20.3669 22.624 18.8539 22.1392 15.5526H16.9587C16.2731 15.7506 13.4086 16.975 8.36505 19.2259C7.45762 19.6764 7.62662 21.0045 7.79248 21.4421C7.79924 21.46 9.329 24.0813 12.3817 29.306L16.6197 26.6063L13.1481 22.1515C13.0564 21.9668 13.0591 21.8608 13.156 21.8334Z" fill="#5C63AB"/>
<path fill-rule="evenodd" clip-rule="evenodd" d="M12.7827 14.3058L9.74475 16.5366C8.9208 16.7589 8.23242 17.0355 7.67961 17.3664C7.54902 17.4854 7.3912 17.7264 7.93276 17.6847C8.47433 17.6431 9.04585 17.6237 9.12058 17.8084C9.1953 17.9931 8.86758 18.214 9.01863 18.4632C9.11933 18.6294 9.59509 18.2128 10.4459 17.2133L13.4543 15.9658L12.7827 14.3058ZM24.4468 14.3827L22.4566 14.3906C23.6855 18.3576 24.3489 20.4625 24.4468 20.7052C24.6672 21.2513 24.2008 22.0831 24.0014 22.5301C24.6509 22.8207 24.5817 21.7444 25.4011 22.1256C26.149 22.4735 26.7179 23.1039 27.5819 22.5708C27.6882 22.5052 27.8046 22.2584 27.5233 22.0656C26.8226 21.5851 25.8128 20.7442 25.6763 20.4674C25.4903 20.0899 25.0804 18.0617 24.4468 14.3827Z" fill="#915B3C"/>
<path fill-rule="evenodd" clip-rule="evenodd" d="M18.7909 6.03129L17.9674 5.89004C14.9118 8.5296 13.6568 13.6005 9.91146 16.2868L10.8129 17.4042C17.3105 16.5997 18.9209 10.4144 18.7909 6.03129Z" fill="#E87613"/>
<path fill-rule="evenodd" clip-rule="evenodd" d="M22.3809 16.3808C19.0789 16.3808 16.6499 16.3808 15.0941 16.3808C14.7612 16.3808 14.8239 15.9 14.872 15.6574C15.4276 12.8573 17.5961 9.839 17.5961 5.85321L19.6979 5.52362C21.4364 8.31966 22.0376 11.7621 22.3809 16.3808Z" fill="#DDE3E9"/>
<path fill-rule="evenodd" clip-rule="evenodd" d="M22.3224 8.27209C22.6276 8.18434 22.8694 7.97968 23.0476 7.65811C23.8158 6.27191 23.5384 5.5087 22.7174 5.25783C21.8964 5.00696 21.1642 5.52371 19.8562 5.52371C19.785 5.52371 19.7199 5.52817 19.6607 5.53709L19.0027 5.57464C17.1148 11.9728 16.5942 16.2415 17.4407 18.3809H23.176C23.5158 19.1732 23.841 19.8399 24.1515 20.3809H25.7143C25.8613 15.6253 24.7307 11.5891 22.3224 8.27209Z" fill="#FF9B21"/>
<path fill-rule="evenodd" clip-rule="evenodd" d="M21.9271 15.0948C21.7467 16.604 21.4535 17.6993 21.0476 18.3808H23.176C22.7796 17.4565 22.3633 16.3612 21.9271 15.0948Z" fill="black" fill-opacity="0.1"/>
</svg>
